<svg width="20" height="16" viewBox="0 0 20 16" fill="none" xmlns="http://www.w3.org/2000/svg">
<path d="M4.931 2.546L2.247 0.187C2.104 0.0619998 1.927 0 1.75 0C1.332 0 1 0.34 1 0.75C1 0.957 1.086 1.164 1.254 1.312L17.754 15.813C17.896 15.939 18.073 16 18.25 16C18.665 16 19 15.666 19 15.25C19 15.043 18.914 14.836 18.747 14.688L16.309 12.545C17.723 11.413 18.936 9.993 19.856 8.517C19.952 8.358 20 8.179 20 8C20 7.821 19.951 7.642 19.855 7.483C17.744 4.093 14.08 1 10.002 1C8.187 1 6.466 1.593 4.931 2.546ZM2.613 4.376C1.646 5.319 0.809 6.389 0.138 7.493C0.0460005 7.649 0 7.825 0 8C0 8.175 0.0460005 8.351 0.138 8.507C2.206 11.91 5.859 15 10.002 15C11.3 15 12.555 14.687 13.732 14.151L11.108 11.844C10.756 11.946 10.384 12 10 12C7.792 12 6 10.208 6 8C6 7.794 6.016 7.592 6.046 7.394L2.613 4.376ZM7.545 4.843C8.223 4.315 9.075 4 10 4C12.208 4 14 5.792 14 8C14 8.741 13.798 9.435 13.447 10.03L12.287 9.011C12.424 8.701 12.5 8.36 12.5 8C12.5 6.62 11.38 5.5 10 5.5C9.526 5.5 9.082 5.632 8.704 5.862L7.545 4.843Z" fill="#B6B6B6"/>
</svg>
